# xmcd CD database file
#
# Track frame offsets:
#	150
#	20566
#	35032
#	51718
#	65720
#	80707
#	97280
#	111271
#	132190
#	147319
#	164487
#	182118
#
# Disc length: 2576 seconds
#
# Revision: 0
# Processed by: cddbd v1.5.1PL0 Copyright (c) Steve Scherf et al.
# Submitted via: CDex 1.50
#
DISCID=c00a0e0c
DTITLE=George Royter - How Many Tears
DYEAR=2005
DGENRE=Country
TTITLE0=George Royter =Sleeper Cutters
TTITLE1=George Royter =People In The Street
TTITLE2=George Royter =How Many Tears
TTITLE3=George Royter =The Booker
TTITLE4=George Royter =Gypsy Girl
TTITLE5=George Royter =For Dad
TTITLE6=George Royter =Here With You
TTITLE7=George Royter =Bluey
TTITLE8=George Royter =Work Until You Drop
TTITLE9=George Royter =I'm A Rambler
TTITLE10=George Royter =Twilight Lullaby
TTITLE11=George Royter =Land Or Sea
EXTD=YEAR: 2005
EXTT0=
EXTT1=
EXTT2=
EXTT3=
EXTT4=
EXTT5=
EXTT6=
EXTT7=
EXTT8=
EXTT9=
EXTT10=
EXTT11=
PLAYORDER=
